<mxfile host="app.diagrams.net" modified="2021-06-02T02:22:27.225Z" agent="5.0 (Macintosh; Intel Mac OS X 10_15_7) AppleWebKit/537.36 (KHTML, like Gecko) Chrome/90.0.4430.212 Safari/537.36" etag="E1VAvcxYriTYb9ulapqB" version="14.7.2" type="github" pages="2">
  <diagram id="C5RBs43oDa-KdzZeNtuy" name="Page-1">
    <mxGraphModel dx="1078" dy="527" grid="1" gridSize="10" guides="1" tooltips="1" connect="1" arrows="1" fold="1" page="1" pageScale="1" pageWidth="827" pageHeight="1169" math="0" shadow="0">
      <root>
        <mxCell id="WIyWlLk6GJQsqaUBKTNV-0" />
        <mxCell id="WIyWlLk6GJQsqaUBKTNV-1" parent="WIyWlLk6GJQsqaUBKTNV-0" />
        <mxCell id="943a5a9jv8bSFKne7sgi-5" value="" style="edgeStyle=orthogonalEdgeStyle;rounded=0;orthogonalLoop=1;jettySize=auto;html=1;" edge="1" parent="WIyWlLk6GJQsqaUBKTNV-1" source="943a5a9jv8bSFKne7sgi-1" target="943a5a9jv8bSFKne7sgi-4">
          <mxGeometry relative="1" as="geometry" />
        </mxCell>
        <mxCell id="943a5a9jv8bSFKne7sgi-1" value="输入mac 数据(9729)&amp;nbsp;" style="whiteSpace=wrap;html=1;" vertex="1" parent="WIyWlLk6GJQsqaUBKTNV-1">
          <mxGeometry x="10" y="350" width="120" height="60" as="geometry" />
        </mxCell>
        <mxCell id="943a5a9jv8bSFKne7sgi-7" value="" style="edgeStyle=orthogonalEdgeStyle;rounded=0;orthogonalLoop=1;jettySize=auto;html=1;" edge="1" parent="WIyWlLk6GJQsqaUBKTNV-1" source="943a5a9jv8bSFKne7sgi-4" target="943a5a9jv8bSFKne7sgi-6">
          <mxGeometry relative="1" as="geometry" />
        </mxCell>
        <mxCell id="943a5a9jv8bSFKne7sgi-4" value="ip数据usermac碰撞" style="whiteSpace=wrap;html=1;" vertex="1" parent="WIyWlLk6GJQsqaUBKTNV-1">
          <mxGeometry x="180" y="350" width="120" height="60" as="geometry" />
        </mxCell>
        <mxCell id="943a5a9jv8bSFKne7sgi-12" value="" style="edgeStyle=orthogonalEdgeStyle;rounded=0;orthogonalLoop=1;jettySize=auto;html=1;" edge="1" parent="WIyWlLk6GJQsqaUBKTNV-1" source="943a5a9jv8bSFKne7sgi-6" target="943a5a9jv8bSFKne7sgi-11">
          <mxGeometry relative="1" as="geometry" />
        </mxCell>
        <mxCell id="943a5a9jv8bSFKne7sgi-6" value="匹配到对应的mac：4489，ip数据：10980" style="whiteSpace=wrap;html=1;" vertex="1" parent="WIyWlLk6GJQsqaUBKTNV-1">
          <mxGeometry x="354" y="350" width="120" height="60" as="geometry" />
        </mxCell>
        <mxCell id="uGs5DL58oaK0FRAOYpeO-4" value="" style="edgeStyle=orthogonalEdgeStyle;rounded=0;orthogonalLoop=1;jettySize=auto;html=1;" edge="1" parent="WIyWlLk6GJQsqaUBKTNV-1" source="943a5a9jv8bSFKne7sgi-11" target="uGs5DL58oaK0FRAOYpeO-3">
          <mxGeometry relative="1" as="geometry" />
        </mxCell>
        <mxCell id="943a5a9jv8bSFKne7sgi-11" value="原有ip数据和结果ip数据碰撞" style="whiteSpace=wrap;html=1;" vertex="1" parent="WIyWlLk6GJQsqaUBKTNV-1">
          <mxGeometry x="520" y="350" width="120" height="60" as="geometry" />
        </mxCell>
        <mxCell id="uGs5DL58oaK0FRAOYpeO-3" value="最终得到&lt;br&gt;ip：4个&lt;br&gt;wifimac：8个&lt;br&gt;usermac：5个" style="whiteSpace=wrap;html=1;" vertex="1" parent="WIyWlLk6GJQsqaUBKTNV-1">
          <mxGeometry x="720" y="350" width="120" height="60" as="geometry" />
        </mxCell>
      </root>
    </mxGraphModel>
  </diagram>
  <diagram id="zzfwXdXytqprRkrTwcIb" name="Page-2">
    <mxGraphModel dx="1886" dy="923" grid="1" gridSize="10" guides="1" tooltips="1" connect="1" arrows="1" fold="1" page="1" pageScale="1" pageWidth="827" pageHeight="1169" math="0" shadow="0">
      <root>
        <mxCell id="EldLkOiBM1FfZQ6YDA5C-0" />
        <mxCell id="EldLkOiBM1FfZQ6YDA5C-1" parent="EldLkOiBM1FfZQ6YDA5C-0" />
      </root>
    </mxGraphModel>
  </diagram>
</mxfile>
